<?xml version="1.0" standalone="no"?>
<!DOCTYPE svg PUBLIC "-//W3C//DTD SVG 20010904//EN"
 "http://www.w3.org/TR/2001/REC-SVG-20010904/DTD/svg10.dtd">
<svg version="1.0" xmlns="http://www.w3.org/2000/svg"
 width="380.000000pt" height="380.000000pt" viewBox="0 0 380.000000 380.000000"
 preserveAspectRatio="xMidYMid meet">
<metadata>
Created by potrace 1.14, written by Peter Selinger 2001-2017
</metadata>
<g transform="translate(0.000000,380.000000) scale(0.100000,-0.100000)"
fill="#000000" stroke="none">
<path d="M0 1900 l0 -1900 1900 0 1900 0 0 1900 0 1900 -1900 0 -1900 0 0
-1900z m954 978 c569 -339 523 -308 531 -365 16 -120 52 -322 135 -764 83
-441 123 -688 114 -698 -2 -2 -7 5 -10 15 -4 10 -121 315 -260 677 l-253 659
-164 171 c-478 502 -540 570 -508 551 19 -10 206 -121 415 -246z m2285 185
c-96 -98 -551 -582 -601 -639 -21 -23 -38 -45 -38 -48 0 -6 -471 -1237 -496
-1296 -14 -34 -14 -32 -8 45 4 44 6 87 5 95 -4 41 1 75 15 102 9 18 13 40 9
58 -4 19 0 42 11 65 9 20 17 57 16 83 0 25 7 56 15 69 8 12 16 46 18 75 1 29
7 65 13 80 6 15 11 48 10 73 0 25 4 51 10 57 13 17 24 70 24 116 0 21 5 40 11
44 6 4 11 31 11 61 1 31 5 53 10 49 5 -3 7 2 3 10 -3 9 1 33 8 54 8 24 11 57
8 83 -5 35 -3 42 7 36 10 -6 12 -4 7 8 -3 10 -3 17 2 17 4 0 13 44 19 97 6 53
17 102 24 109 16 15 884 534 893 534 4 0 18 9 32 20 50 39 37 19 -38 -57z
m-2244 -456 c132 -138 197 -213 212 -246 19 -42 298 -759 435 -1116 34 -89 50
-147 52 -185 2 -43 18 -92 75 -225 105 -243 104 -241 93 -230 -5 6 -101 128
-214 271 l-203 262 19 166 c18 151 21 164 33 141 8 -14 18 -25 23 -25 5 0 13
-12 16 -27 4 -16 14 -44 22 -63 15 -35 15 -35 22 -10 4 16 -1 45 -15 80 -12
30 -32 80 -43 110 -11 30 -50 132 -87 225 -98 253 -109 280 -155 400 -23 61
-48 124 -55 140 -7 17 -21 49 -30 73 -11 25 -42 66 -76 99 -32 31 -56 59 -54
63 3 5 -17 28 -44 52 -27 23 -123 122 -213 218 -89 96 -172 184 -183 196 -31
32 -65 74 -65 79 0 6 99 -97 435 -448z m2204 376 c-29 -32 -132 -141 -229
-243 -97 -102 -212 -223 -256 -268 l-79 -84 -77 -201 c-43 -111 -97 -251 -119
-312 -23 -60 -68 -176 -100 -258 -54 -135 -73 -217 -50 -217 5 0 15 14 23 30
7 17 15 30 18 30 3 0 13 -73 23 -161 16 -144 16 -164 3 -183 -8 -11 -46 -60
-83 -108 -37 -47 -119 -153 -182 -235 -63 -81 -121 -155 -129 -163 -13 -13
-14 -13 -7 5 4 11 22 61 41 111 18 51 42 110 53 132 11 22 27 57 34 79 8 21
24 62 36 91 12 29 17 51 11 47 -19 -12 -20 -14 75 230 57 146 259 668 337 870
61 158 90 220 116 250 46 52 348 370 481 508 111 113 150 146 60 50z m-2589
-426 c85 -35 227 -95 314 -133 l159 -68 85 -175 c46 -97 88 -187 94 -201 l9
-25 -23 21 c-72 65 -356 293 -564 453 -131 101 -243 189 -249 194 -13 13 -15
13 175 -66z m2769 59 c-2 -2 -119 -93 -259 -201 -253 -196 -542 -432 -548
-447 -2 -4 -8 -8 -13 -8 -6 0 -7 5 -3 11 4 7 9 26 11 43 1 17 10 36 18 42 8 6
12 14 8 17 -3 4 -2 7 4 7 6 0 16 20 22 44 6 25 17 51 25 59 8 8 12 17 9 21 -4
3 -1 6 6 6 7 0 19 17 27 38 31 81 48 104 89 122 22 10 153 66 290 125 138 58
259 110 270 115 20 9 52 13 44 6z m-2589 -290 c231 -179 440 -349 434 -355 -4
-5 -155 112 -289 224 -45 38 -193 153 -305 237 -89 68 -120 94 -120 103 0 7
18 -6 280 -209z m2515 204 c-6 -10 -224 -182 -379 -299 -60 -46 -223 -182
-303 -254 -13 -11 -25 -18 -29 -15 -7 8 170 155 465 385 135 106 247 192 249
193 2 0 0 -5 -3 -10z m-2470 -509 c50 -12 149 -34 220 -51 72 -16 137 -30 145
-30 8 0 33 -7 55 -15 37 -15 44 -24 84 -105 23 -50 47 -90 53 -90 6 0 7 -7 4
-16 -3 -8 -2 -13 3 -10 12 7 22 -20 15 -38 -3 -8 -1 -24 6 -35 6 -12 8 -21 5
-21 -2 0 -116 68 -252 151 -137 84 -293 179 -348 212 -108 65 -132 83 -100 74
11 -4 61 -15 110 -26z m2270 20 c-6 -5 -168 -105 -362 -224 -274 -167 -350
-209 -343 -191 5 13 7 24 4 24 -4 0 -1 6 5 13 6 8 8 17 4 20 -7 8 38 97 50 97
5 0 5 5 2 10 -3 6 -2 10 4 10 6 0 7 7 4 17 -4 11 -3 14 5 9 8 -5 10 -2 6 8 -4
10 11 32 40 61 43 42 63 51 108 47 15 -1 251 51 433 96 22 5 42 10 45 11 2 1
0 -3 -5 -8z m-2003 -254 c147 -89 263 -163 258 -165 -5 -2 -73 37 -152 85 -79
49 -209 128 -291 177 -81 48 -150 93 -154 99 -8 14 2 7 339 -196z m1873 141
c-44 -28 -127 -79 -185 -113 -58 -34 -141 -84 -185 -111 -121 -76 -161 -98
-149 -85 15 17 576 360 589 360 6 0 -26 -23 -70 -51z m-1530 -653 c-13 -94
-14 -95 -9 -25 6 90 17 161 21 140 2 -8 -4 -60 -12 -115z m922 73 c-3 -8 -6
-5 -6 6 -1 11 2 17 5 13 3 -3 4 -12 1 -19z m10 -70 c-3 -8 -6 -5 -6 6 -1 11 2
17 5 13 3 -3 4 -12 1 -19z m-833 -292 c62 -77 145 -184 185 -236 63 -83 66
-88 21 -40 -28 30 -76 87 -105 125 -29 39 -92 119 -139 180 -49 62 -86 118
-85 130 1 18 2 18 6 1 3 -10 55 -82 117 -160z m809 87 c-132 -172 -285 -363
-290 -363 -3 0 1 8 9 18 8 9 79 99 157 200 78 100 145 182 148 182 2 0 -8 -17
-24 -37z m-293 -377 c0 -2 -8 -10 -17 -17 -16 -13 -17 -12 -4 4 13 16 21 21
21 13z"/>
<path d="M813 2893 c3 -5 60 -42 126 -82 70 -42 118 -77 114 -84 -3 -6 -1 -7
5 -3 6 3 89 -39 184 -96 95 -56 174 -102 175 -102 0 -1 3 -32 6 -71 l6 -70
-12 58 c-14 65 -50 111 -100 125 -34 10 -159 82 -142 82 12 0 -29 25 -67 41
-16 6 -28 15 -28 21 0 5 -4 6 -10 3 -5 -3 -27 6 -49 20 -22 15 -47 25 -56 23
-12 -2 15 -37 97 -123 218 -229 182 -169 338 -574 28 -73 57 -143 65 -155 7
-11 19 -41 25 -66 11 -39 14 -42 20 -24 8 20 0 78 -59 406 -12 64 -21 127 -20
140 1 25 8 -7 34 -152 32 -185 130 -671 133 -662 1 5 -24 153 -57 328 -33 176
-69 382 -81 459 -12 77 -25 154 -29 170 -6 26 -39 50 -286 198 -307 184 -340
203 -332 190z"/>
<path d="M2699 2715 l-305 -184 -18 -118 c-9 -65 -42 -253 -72 -418 -68 -369
-68 -371 -61 -365 3 3 19 77 37 165 18 88 35 162 38 165 2 3 2 -29 -1 -70 l-6
-75 29 60 c15 33 63 148 105 255 120 306 108 285 255 441 73 77 142 153 154
167 l20 27 -26 -23 c-19 -17 -27 -20 -30 -10 -5 14 -45 -3 -140 -59 -25 -15
-93 -56 -151 -90 -87 -51 -105 -67 -114 -95 l-11 -33 -1 32 c-1 31 4 35 278
199 244 146 349 214 331 213 -3 0 -143 -83 -311 -184z m-312 -387 c-3 -8 -6
-5 -6 6 -1 11 2 17 5 13 3 -3 4 -12 1 -19z m-20 -120 c-3 -8 -6 -5 -6 6 -1 11
2 17 5 13 3 -3 4 -12 1 -19z m-40 -220 c-3 -8 -6 -5 -6 6 -1 11 2 17 5 13 3
-3 4 -12 1 -19z"/>
<path d="M2221 1544 c0 -11 3 -14 6 -6 3 7 2 16 -1 19 -3 4 -6 -2 -5 -13z"/>
<path d="M1516 1250 c11 -38 126 -291 131 -286 2 2 -19 57 -46 121 -57 129
-96 206 -85 165z"/>
<path d="M2276 1213 c-50 -104 -108 -244 -103 -249 2 -2 34 64 71 147 37 83
65 153 63 155 -2 3 -17 -21 -31 -53z"/>
<path d="M780 2416 c0 -2 57 -28 126 -57 l127 -53 24 -53 c26 -61 54 -106 60
-99 2 2 -14 40 -36 83 l-39 79 -124 52 c-117 50 -138 57 -138 48z"/>
<path d="M960 2300 c-12 -7 -7 -12 20 -24 19 -8 34 -17 32 -21 -2 -4 -1 -9 2
-12 3 -4 6 3 6 14 0 11 -8 27 -18 36 -21 20 -22 20 -42 7z"/>
<path d="M2895 2365 l-119 -54 -38 -81 c-45 -98 -27 -91 21 7 l33 68 116 49
c64 27 121 53 127 58 21 19 -27 3 -140 -47z"/>
<path d="M2820 2265 c-14 -8 -20 -14 -14 -15 5 0 19 7 30 15 24 18 16 19 -16
0z"/>
<path d="M1029 1912 c8 -5 59 -20 114 -33 l100 -23 24 -53 c13 -29 29 -55 34
-58 14 -10 11 2 -20 63 l-29 58 -96 23 c-143 34 -143 34 -127 23z"/>
<path d="M1192 1833 c9 -2 20 -13 23 -24 4 -11 9 -18 12 -16 10 10 -18 47 -35
46 -16 -1 -16 -2 0 -6z"/>
<path d="M2677 1890 c-60 -15 -109 -30 -110 -32 -21 -37 -55 -118 -49 -118 4
0 21 26 37 57 l30 56 100 25 c55 13 104 28 110 33 13 13 6 11 -118 -21z"/>
</g>
</svg>
